<?xml version="1.0" encoding="UTF-8" standalone="no"?>
<svg
   xmlns:dc="http://purl.org/dc/elements/1.1/"
   xmlns:cc="http://creativecommons.org/ns#"
   xmlns:rdf="http://www.w3.org/1999/02/22-rdf-syntax-ns#"
   xmlns:svg="http://www.w3.org/2000/svg"
   xmlns="http://www.w3.org/2000/svg"
   version="1.1"
   id="svg2"
   viewBox="0 0 271.00041 89.454527"
   height="25.246056mm"
   width="76.482338mm">
  <defs
     id="defs4" />
  <metadata
     id="metadata7">
    <rdf:RDF>
      <cc:Work
         rdf:about="">
        <dc:format>image/svg+xml</dc:format>
        <dc:type
           rdf:resource="http://purl.org/dc/dcmitype/StillImage" />
        <dc:title></dc:title>
      </cc:Work>
    </rdf:RDF>
  </metadata>
  <g
     transform="translate(-190.78496,-189.45727)"
     id="layer1">
    <path
       id="path3347"
       d="m 337.96583,276.72912 c 0.21033,-1.43667 1.31577,-2.44753 3.23432,-2.95758 3.79084,-1.00781 4.55137,-2.35745 4.56992,-8.10974 l 0.0153,-4.75 7,0 7,0 0,5.3 c 0,5.986 1.15751,7.7 5.2,7.7 2.32,0 2.8,0.42857 2.8,2.5 l 0,2.5 -15.06955,0 c -14.92091,0 -15.0664,-0.0215 -14.75,-2.18268 z m -117.43045,-6.38745 c -0.4125,-0.41976 -0.75,-3.85233 -0.75,-7.62792 0,-7.88943 0.52633,-8.39999 7.57053,-7.34364 4.81642,0.72226 6.48785,2.64041 4.7295,5.42761 -0.72208,1.1446 -0.62451,2.21508 0.33546,3.68032 2.1313,3.2531 -0.23096,5.59384 -6.21762,6.16096 -2.70483,0.25624 -5.25537,0.12244 -5.66787,-0.29733 z m 7.75,-4.42987 c 0,-0.825 -1.0125,-1.6438 -2.25,-1.81955 -1.7317,-0.24594 -2.25,0.17321 -2.25,1.81955 0,1.64634 0.5183,2.06549 2.25,1.81955 1.2375,-0.17575 2.25,-0.99455 2.25,-1.81955 z m 0.255,-6.25 c -0.63335,-1.92318 -4.755,-2.20017 -4.755,-0.31955 0,1.02102 0.90283,1.56955 2.58333,1.56955 1.61956,0 2.42976,-0.46634 2.17168,-1.25 z m 9.81485,9 c 0.38755,-1.2375 1.88037,-4.725 3.31739,-7.75 3.63041,-7.6422 5.47057,-7.37212 9.19099,1.34896 1.60697,3.76693 2.92177,7.25443 2.92177,7.75 0,1.50402 -3.02231,1.00648 -3.63837,-0.59896 -0.3493,-0.91025 -1.8615,-1.5 -3.84617,-1.5 -1.79882,0 -3.83077,0.675 -4.51546,1.5 -1.99512,2.40397 -4.26261,1.90819 -3.43015,-0.75 z m 9.43015,-4.16821 c 0,-1.21215 -1.31678,-3.58179 -1.99036,-3.58179 -0.42701,0 -1.01173,0.9 -1.29939,2 -0.38794,1.48349 -0.0307,2 1.38337,2 1.04851,0 1.90638,-0.1882 1.90638,-0.41821 z m 12,-1.50847 0,-8.07332 3.75,0.0147 c 2.0625,0.008 4.875,0.58999 6.25,1.29307 2.49322,1.27487 2.62974,1.986 1.86061,9.69219 -0.0823,0.825 0.18848,2.2875 0.60183,3.25 1.26868,2.95419 -3.29223,2.21768 -4.64439,-0.75 -1.4151,-3.10581 -3.57249,-3.24621 -3.9985,-0.26022 -0.17575,1.23189 -1.10705,2.38988 -2.06955,2.57333 -1.5497,0.29536 -1.75,-0.59051 -1.75,-7.73979 z m 9,-2.07332 c 0,-1.46667 -0.66667,-2 -2.5,-2 -1.83333,0 -2.5,0.53333 -2.5,2 0,1.46667 0.66667,2 2.5,2 1.83333,0 2.5,-0.53333 2.5,-2 z m 10.41714,8.64467 c -0.28605,-0.74543 -0.38442,-4.23293 -0.21861,-7.75 l 0.30147,-6.39467 3.55647,-0.29883 c 4.87874,-0.40993 8.94353,1.27855 8.94353,3.71506 0,1.08116 -0.45345,2.24599 -1.00767,2.58851 -0.62133,0.384 -0.41048,1.21997 0.54995,2.1804 2.09433,2.09433 1.47678,4.49305 -1.55114,6.025 -3.35448,1.69718 -9.91319,1.65657 -10.574,-0.0655 z m 9.08286,-3.64467 c 0,-0.89299 -1.11285,-1.62805 -2.75,-1.81642 -2.23933,-0.25767 -2.75,0.0796 -2.75,1.81642 0,1.73678 0.51067,2.07409 2.75,1.81642 1.63715,-0.18837 2.75,-0.92343 2.75,-1.81642 z m -0.74499,-6.25 c -0.63336,-1.92318 -4.75501,-2.20017 -4.75501,-0.31955 0,1.02102 0.90283,1.56955 2.58333,1.56955 1.61956,0 2.42976,-0.46634 2.17168,-1.25 z m 11.24499,3.25 0,-8.09981 5.75,0.29991 c 4.31115,0.22485 5.75,0.67525 5.75,1.7999 0,1.01149 -1.22127,1.60108 -3.75,1.81036 -4.60699,0.3813 -4.93675,1.9485 -0.5,2.37628 2.08295,0.20084 3.25,0.852 3.25,1.81336 0,0.96136 -1.16705,1.61252 -3.25,1.81336 -4.43675,0.42778 -4.10699,1.99498 0.5,2.37628 2.52873,0.20928 3.75,0.79887 3.75,1.81036 0,1.12465 -1.43885,1.57505 -5.75,1.7999 l -5.75,0.29991 0,-8.09981 z m 18,0.0733 0,-8.07332 3.75,0.0147 c 2.0625,0.008 4.875,0.58999 6.25,1.29307 2.49322,1.27487 2.62974,1.986 1.86061,9.69219 -0.0823,0.825 0.18848,2.2875 0.60183,3.25 1.26868,2.95419 -3.29223,2.21768 -4.64439,-0.75 -1.4151,-3.10581 -3.57249,-3.24621 -3.9985,-0.26022 -0.17575,1.23188 -1.10705,2.38988 -2.06955,2.57333 -1.5497,0.29536 -1.75,-0.59051 -1.75,-7.73979 z m 9,-2.07332 c 0,-1.46667 -0.66667,-2 -2.5,-2 -1.83333,0 -2.5,0.53333 -2.5,2 0,1.46667 0.66667,2 2.5,2 1.83333,0 2.5,-0.53333 2.5,-2 z m 47.7,8.82105 c -3.32481,-1.21243 -3.01393,-3.46941 0.41023,-2.9783 4.7251,0.67769 5.18,0.6418 5.56419,-0.4389 0.21432,-0.60288 -1.04034,-1.50627 -2.78814,-2.00753 -5.98662,-1.71694 -6.43826,-6.75681 -0.7827,-8.73419 3.1654,-1.10673 8.06327,0.73948 7.29224,2.74876 -0.43951,1.14534 -1.14198,1.25592 -3.14374,0.49485 -4.47203,-1.70026 -5.02228,0.71638 -0.6327,2.77879 4.67231,2.19524 5.58086,5.36138 2.21501,7.71891 -2.57459,1.80332 -4.11723,1.88252 -8.13439,0.41761 z m 16.3,-6.82105 c 0,-7.21834 0.19941,-8.10887 1.75,-7.81513 1.15255,0.21833 1.85698,1.43827 2.06336,3.57332 0.27535,2.84866 0.66949,3.24181 3.25,3.24181 2.70097,0 2.93664,-0.28676 2.93664,-3.57332 0,-2.86489 0.34695,-3.50651 1.75,-3.23631 1.48047,0.28511 1.75,1.48791 1.75,7.80963 0,6.32172 -0.26953,7.52452 -1.75,7.80963 -1.36016,0.26194 -1.75,-0.34761 -1.75,-2.73631 0,-2.73267 -0.32516,-3.07332 -2.93358,-3.07332 -2.45443,0 -2.98526,0.44776 -3.25,2.74145 -0.19084,1.65345 -1.01094,2.87316 -2.06642,3.07332 -1.55062,0.29407 -1.75,-0.59629 -1.75,-7.81477 z m 24.01661,6.714 c -2.99157,-1.51363 -4.55146,-5.44684 -3.62467,-9.13946 0.95147,-3.79096 6.60401,-6.16652 10.3676,-4.35712 6.05534,2.91118 6.7774,10.41932 1.27563,13.26439 -3.54385,1.8326 -4.78449,1.86852 -8.01856,0.23219 z m 7.57601,-5.22699 c 1.08159,-4.30942 -3.37891,-7.30072 -6.39262,-4.28701 -1.29351,1.29351 -1.61988,5.04679 -0.53333,6.13333 0.36666,0.36667 1.93309,0.66667 3.48094,0.66667 2.17179,0 2.95828,-0.57371 3.44501,-2.51299 z m 10.40738,-1.41369 0,-8.07332 3.45295,0 c 7.28803,0 11.03013,4.08759 7.98989,8.72758 -0.98332,1.50074 -2.47625,2.27242 -4.39634,2.27242 -2.24937,0 -2.97972,0.50693 -3.22695,2.23978 -0.17575,1.23189 -1.10705,2.38988 -2.06955,2.57333 -1.5497,0.29536 -1.75,-0.59051 -1.75,-7.73979 z m 8.81311,-2.32332 c 0.24772,-1.29971 -0.3286,-1.75 -2.23979,-1.75 -1.93548,0 -2.57332,0.51297 -2.57332,2.06955 0,1.57185 0.53864,1.9927 2.23978,1.75 1.23189,-0.17575 2.38988,-1.10705 2.57333,-2.06955 z m -243.88268,5.66618 c -1.77644,-2.14049 0.0104,-4.91618 3.16486,-4.91618 2.72109,0 3.74779,2.77923 1.86484,5.04804 -1.56829,1.88967 -3.39164,1.84187 -5.0297,-0.13186 z m -5.90847,-32.66618 c 0.0234,-8.77566 2.0059,-15.01699 6.18374,-19.46734 6.95824,-7.41211 29.4143,-6.6003 32.96457,1.1917 1.72134,3.77793 0.23396,7.4588 -3.67374,9.09154 -5.71156,2.38644 -7.49653,1.94751 -7.49653,-1.84339 0,-4.55914 -2.45175,-7.72251 -5.98528,-7.72251 -5.69087,0 -8.00012,5.40613 -8.00914,18.75 l -0.006,8.25 -7,0 -7,0 0.022,-8.25 z m 51.97804,-4.05 c 0,-13.0894 -0.52258,-14.7 -4.76955,-14.7 -1.88533,0 -2.30425,-0.45979 -2.05,-2.25 0.30132,-2.12164 0.84227,-2.26634 9.48211,-2.53637 l 9.16255,-0.28637 0.6669,3.03637 c 0.77697,3.5375 1.55467,3.79253 3.25627,1.06783 2.11579,-3.38792 7.08347,-5.30208 12.42745,-4.7886 5.7735,0.55476 8.82427,2.96718 8.82427,6.97787 0,4.16621 -1.49861,6.40883 -5.12811,7.67409 -4.70172,1.63902 -5.36657,1.41674 -6.41509,-2.14482 -0.78805,-2.67678 -1.52009,-3.30453 -4.15053,-3.55916 -4.5764,-0.44301 -6.54057,3.7166 -7.11092,15.05916 l -0.43999,8.75 -6.87768,0 -6.87768,0 0,-12.3 z m 43.66667,11.63333 c -1.2153,-1.21529 -0.6905,-12.89007 0.80593,-17.9291 2.65426,-8.93788 10.99368,-14.40423 21.97499,-14.40423 7.67184,0 13.97553,2.50812 17.93775,7.13708 4.2155,4.92487 5.81678,10.49604 5.42164,18.86292 l -0.30698,6.5 -6.61425,0.2926 -6.61425,0.29259 -0.47563,-9.79259 c -0.65098,-13.40286 -2.77515,-17.2926 -9.4434,-17.2926 -6.49042,0 -8.77502,4.59166 -8.82045,17.72756 l -0.032,9.26085 -6.58333,0.006 c -3.62084,0.003 -6.88334,-0.29421 -7.25,-0.66087 z m 59.33333,-11.2619 c 0,-12.65998 -0.81144,-15.07143 -5.07143,-15.07143 -1.39047,0 -1.92857,-0.69753 -1.92857,-2.5 0,-2.48199 0.065,-2.5 9.025,-2.5 l 9.025,0 0.6,3 c 0.33,1.65 0.82184,3 1.09298,3 0.27115,0 1.99591,-1.31958 3.83281,-2.9324 7.73516,-6.79156 21.15269,-4.21806 25.93759,4.97488 2.0445,3.92797 3.7223,14.90021 3.00741,19.66742 l -0.64334,4.2901 -6.84502,0 -6.84502,0 -0.3437,-9.92959 c -0.3877,-11.20039 -2.25937,-15.29927 -7.25724,-15.89307 -6.59442,-0.78349 -9.57137,4.83199 -9.58089,18.07266 l -0.006,7.75 -7,0 -7,0 0,-11.92857 z m 59,0.0836 c 0,-10.20526 -0.25316,-12.07412 -1.82874,-13.5 -1.00581,-0.91025 -2.80581,-1.65499 -4,-1.65499 -1.65707,0 -2.17126,-0.60005 -2.17126,-2.53383 l 0,-2.53383 10.75,0.28383 10.75,0.28383 0.27539,15.75 0.2754,15.75 -7.0254,0 -7.02539,0 0,-11.84501 z m 31,-1.15499 0,-13 -3.06955,0 c -2.58612,0 -3.01923,-0.34375 -2.75,-2.18268 0.20722,-1.41539 1.30875,-2.44561 3.13348,-2.93062 3.96967,-1.05512 5.73396,-2.76161 7.89538,-7.6367 1.69174,-3.81573 2.23713,-4.25 5.33748,-4.25 l 3.45321,0 0,5.5 0,5.5 6,0 c 6,0 6,0 6,3 0,3 0,3 -6,3 l -6,0 0,13 0,13 -7,0 -7,0 0,-13 z m -30.94494,-29.65713 c -3.64484,-4.63367 -0.5468,-9.79742 5.87805,-9.79742 4.77827,0 8.06689,2.67139 8.06689,6.55283 0,5.95969 -9.98229,8.28228 -13.94494,3.24459 z"
       style="fill:#0a0a0a" />
  </g>
</svg>
