<?xml version="1.0" encoding="UTF-8" standalone="no"?>
<svg
   xmlns:dc="http://purl.org/dc/elements/1.1/"
   xmlns:cc="http://creativecommons.org/ns#"
   xmlns:rdf="http://www.w3.org/1999/02/22-rdf-syntax-ns#"
   xmlns:svg="http://www.w3.org/2000/svg"
   xmlns="http://www.w3.org/2000/svg"
   version="1.1"
   id="svg2"
   viewBox="0 0 304.43304 123.24137">
  <defs
     id="defs4" />
  <metadata
     id="metadata7">
    <rdf:RDF>
      <cc:Work
         rdf:about="">
        <dc:format>image/svg+xml</dc:format>
        <dc:type
           rdf:resource="http://purl.org/dc/dcmitype/StillImage" />
        <dc:title></dc:title>
      </cc:Work>
    </rdf:RDF>
  </metadata>
  <g
     transform="translate(-336.42671,-109.14225)"
     id="layer1">
    <path
       id="path3366"
       d="m 578.70825,231.05567 c -4.54196,-1.97543 -6.62911,-6.56865 -6.11012,-13.44668 0.82668,-10.95589 6.06651,-17.07853 14.62233,-17.08592 3.45191,-0.003 4.91805,0.58738 7.25,2.91934 3.66428,3.66427 3.92057,7.07692 0.53149,7.07692 -1.71314,0 -2.56851,-0.70489 -3.01523,-2.48477 -0.39118,-1.55857 -1.57733,-2.72413 -3.18215,-3.12692 -6.07327,-1.52429 -10.63368,4.251 -10.80765,13.68675 -0.12226,6.63131 1.36693,8.93118 5.76906,8.90963 4.05047,-0.0198 5.31515,-0.89176 6.15668,-4.24471 0.61491,-2.44997 0.41786,-2.73998 -1.86169,-2.73998 -2.92557,0 -3.93922,-1.12815 -3.06369,-3.40976 0.45523,-1.18629 2.00399,-1.59024 6.09709,-1.59024 l 5.48685,0 -0.68901,5.25 c -0.93577,7.13028 -2.52065,9.2663 -7.87594,10.61478 -5.48483,1.3811 -5.36793,1.38522 -9.30802,-0.32844 z m -199.37076,-14.78634 2.64805,-15.25 5.454,-0.32168 c 8.07439,-0.47624 12.81034,1.23362 14.47909,5.22748 3.33818,7.98939 -3.27573,14.57116 -14.65987,14.58862 l -3.63477,0.006 -0.68718,5.5 c -0.64757,5.18298 -0.84743,5.5 -3.46727,5.5 l -2.78009,0 2.64804,-15.25 z m 16.47602,-2.66157 c 1.0233,-1.13073 1.5972,-3.071 1.40499,-4.75 -0.30446,-2.65937 -0.64767,-2.8572 -5.44044,-3.13602 -5.02909,-0.29257 -5.1262,-0.24402 -5.75,2.875 -1.28678,6.43391 -1.02485,6.92259 3.71049,6.92259 3.00802,0 4.87733,-0.5882 6.07496,-1.91157 z m 13.0458,15.66157 c 0.27713,-1.2375 1.20554,-6.525 2.06313,-11.75 2.35679,-14.35905 1.61423,-13.3426 9.29679,-12.72592 5.61343,0.45059 6.96449,0.94324 8.965,3.26897 2.85137,3.31492 2.36151,6.86062 -1.41367,10.23239 -2.53011,2.25973 -2.53675,2.30753 -0.96236,6.92814 2.09859,6.15899 2.03929,6.48234 -1.1209,6.11284 -2.26253,-0.26454 -2.94715,-1.09523 -4.17557,-5.06642 -1.19281,-3.85608 -1.90029,-4.75 -3.75931,-4.75 -1.99289,0 -2.37605,0.6487 -2.95327,5 -0.62264,4.69369 -0.84033,5 -3.55349,5 -2.4799,0 -2.81869,-0.31943 -2.38635,-2.25 z m 15.01602,-13.37465 c 0.89355,-0.89355 1.4882,-2.58105 1.32143,-3.75 -0.23775,-1.66643 -1.11295,-2.19237 -4.05322,-2.43572 -3.06287,-0.25349 -3.7525,0.0214 -3.76365,1.5 -0.008,0.99571 -0.285,2.82287 -0.61664,4.06037 -0.52868,1.97276 -0.22775,2.25 2.44223,2.25 1.67486,0 3.77629,-0.73109 4.66985,-1.62465 z m 13.88786,10.87465 c 0.35282,-2.6125 1.36073,-8.6875 2.23981,-13.5 1.48339,-8.1208 1.77062,-8.75 3.99443,-8.75 2.94092,0 2.94709,0.23393 0.39611,15 -1.09271,6.325 -1.98972,11.6125 -1.99337,11.75 -0.004,0.1375 -1.1928,0.25 -2.64255,0.25 -2.56798,0 -2.61939,-0.12244 -1.99443,-4.75 z m 14.6346,4 c 0.002,-0.4125 1.12734,-7.02677 2.5,-14.69839 1.37266,-7.67161 2.49575,-14.339 2.49575,-14.81642 0,-0.47742 1.23298,-0.72564 2.73996,-0.55161 2.43854,0.28161 3.23006,1.44699 7.19505,10.59358 2.55489,5.89371 4.73256,9.73242 5.10564,9 0.35781,-0.70244 1.20411,-4.65216 1.88067,-8.77716 1.746,-10.64533 1.8958,-11 4.64607,-11 1.33793,0 2.4307,0.3375 2.42836,0.75 -0.002,0.4125 -1.12734,7.02677 -2.5,14.69839 -1.37266,7.67161 -2.49575,14.30911 -2.49575,14.75 0,0.44088 -1.2375,0.79479 -2.75,0.78646 -2.53151,-0.0139 -3.10753,-0.84131 -7.25,-10.41353 -2.475,-5.71912 -4.77485,-9.8748 -5.11077,-9.23486 -0.33592,0.63995 -1.16961,4.73459 -1.85263,9.09921 -0.68303,4.36462 -1.46883,8.52712 -1.74622,9.25 -0.52536,1.36907 -5.29358,1.87811 -5.28613,0.56433 z m 41.99575,-0.55711 c 0,-0.71891 0.9,-6.20571 2,-12.19289 1.1,-5.98718 2,-11.24898 2,-11.69289 0,-0.44391 -1.77344,-0.80711 -3.94098,-0.80711 -4.24367,0 -5.41865,-0.89925 -4.45528,-3.40976 0.50841,-1.32489 2.51127,-1.59024 12.00325,-1.59024 l 11.39301,0 0,2.5 c 0,2.31799 -0.34801,2.5 -4.77992,2.5 l -4.77992,0 -1.79172,10.75 c -2.56738,15.40373 -2.51438,15.25 -5.25685,15.25 -1.31537,0 -2.39159,-0.5882 -2.39159,-1.30711 z m 24.00425,0.55711 c 0.002,-0.4125 1.12734,-7.02677 2.5,-14.69839 1.37266,-7.67161 2.49575,-14.30911 2.49575,-14.75 0,-0.44088 1.125,-0.80161 2.5,-0.80161 3.0778,0 3.08774,0.30371 0.49347,15.07511 -2.90773,16.5561 -2.68923,15.92489 -5.51252,15.92489 -1.36452,0 -2.47904,-0.3375 -2.4767,-0.75 z m 17,0 c 0.002,-0.4125 1.12734,-7.02677 2.5,-14.69839 1.37266,-7.67161 2.49575,-14.339 2.49575,-14.81642 0,-0.47742 1.23298,-0.72564 2.73996,-0.55161 2.43854,0.28161 3.23006,1.44699 7.19505,10.59358 2.55489,5.89371 4.73256,9.73242 5.10564,9 0.35781,-0.70244 1.20411,-4.65216 1.88067,-8.77716 1.746,-10.64533 1.8958,-11 4.64607,-11 1.33793,0 2.4307,0.3375 2.42836,0.75 -0.002,0.4125 -1.12734,7.02677 -2.5,14.69839 -1.37266,7.67161 -2.49575,14.30911 -2.49575,14.75 0,0.44088 -1.2375,0.79479 -2.75,0.78646 -2.53151,-0.0139 -3.10753,-0.84131 -7.25,-10.41353 -2.475,-5.71912 -4.77485,-9.8748 -5.11077,-9.23486 -0.33592,0.63995 -1.16961,4.73459 -1.85263,9.09921 -0.68303,4.36462 -1.46883,8.52712 -1.74622,9.25 -0.52536,1.36907 -5.29358,1.87811 -5.28613,0.56433 z M 336.42676,198.86317 c 0.0183,-0.46411 3.11339,-11.86884 6.87805,-25.34384 l 6.84483,-24.5 -2.87805,-0.31336 c -3.95322,-0.43042 -3.64221,-2.18664 0.38723,-2.18664 3.00449,0 3.4038,-0.39002 4.9997,-4.88337 3.29645,-9.28135 13.1252,-15.11663 25.46198,-15.11663 4.35572,0 5.82342,0.45947 7.80842,2.44447 3.94914,3.94914 0.72784,9.55553 -5.49037,9.55553 -6.18919,0 -8.03147,-4.25588 -3.79501,-8.76694 l 2.25,-2.39584 -3,0.67434 c -5.91139,1.32875 -6.53233,1.66534 -8.86583,4.80604 -1.89329,2.5482 -5.63417,11.49256 -5.63417,13.47116 0,0.23787 4.95782,0.26279 11.01738,0.0554 7.91756,-0.271 10.89528,-0.0589 10.58341,0.7538 -1.43861,3.74894 -9.60079,32.49136 -9.60079,33.80834 0,3.22098 3.03098,1.46054 5.43427,-3.15629 2.65212,-5.09486 3.46312,-4.33352 1.18691,1.11422 -2.74737,6.57539 -11.15203,9.96207 -15.04975,6.06435 -2.42522,-2.42522 -1.91191,-6.95443 2.42857,-21.42857 2.2,-7.33631 4,-13.71253 4,-14.16938 0,-0.45684 -2.36362,-0.83062 -5.2525,-0.83062 l -5.2525,0 -6.80317,24.72234 c -3.74175,13.59729 -6.89062,24.7964 -6.9975,24.88693 -0.84129,0.71254 -10.68695,1.39092 -10.66111,0.73457 z m 86.44583,-4.67772 c -8.73605,-2.86756 -13.24159,-8.57969 -12.1369,-15.38714 0.76169,-4.69373 2.30814,-6.27898 6.12531,-6.27898 5.22956,0 7.03254,2.91172 7.03254,11.35722 l 0,7.14278 5.40385,0.3076 c 9.40806,0.53552 15.38344,-3.87208 16.64382,-12.27695 1.10196,-7.34837 -1.12693,-13.85808 -8.37547,-24.46145 -9.65582,-14.12481 -11.59757,-20.39597 -9.10008,-29.38998 1.40991,-5.07735 7.3643,-11.52642 12.92788,-14.00187 6.26029,-2.78545 16.85567,-2.73133 23.28377,0.11892 6.94787,3.08072 9.51895,9.81697 6.19804,16.2389 -1.86848,3.61325 -5.86602,4.81821 -9.41252,2.83717 -3.43807,-1.92046 -3.96064,-7.54966 -1.19367,-12.85822 2.3715,-4.54982 1.81849,-5.01412 -5.97209,-5.01412 -4.22238,0 -5.47092,0.49306 -8.66822,3.42316 -3.6624,3.35634 -3.73531,3.56617 -3.73531,10.75 l 0,7.32684 6.75447,10.13299 c 10.89355,16.34239 13.09136,23.25302 10.36155,32.58016 -3.21687,10.99135 -12.53416,17.83055 -25.11602,18.43598 -4.04527,0.19466 -8.69726,-0.22028 -11.02095,-0.98301 z m 44.59353,-10.30098 c -1.13992,-1.44917 -2.06623,-3.58667 -2.05847,-4.75 0.008,-1.16333 1.80776,-8.17861 4,-15.58952 2.19224,-7.41092 3.98589,-13.82341 3.98589,-14.25 0,-0.42659 -1.35,-0.77562 -3,-0.77562 -1.65,0 -3,-0.45 -3,-1 0,-0.55 1.56243,-1 3.47207,-1 3.34128,0 3.53133,-0.20387 5.04549,-5.41242 l 1.57344,-5.41242 5.01852,-0.69022 c 2.76019,-0.37963 5.21552,-0.49323 5.45629,-0.25246 0.24077,0.24077 -0.23317,2.64946 -1.0532,5.35264 -1.99718,6.58359 -2.0626,6.41488 2.48739,6.41488 2.2,0 4,0.45 4,1 0,0.55 -2.00594,1 -4.45765,1 l -4.45766,0 -1.97789,6.75 c -4.98228,17.00314 -7.1068,24.76269 -7.1068,25.95677 0,0.71456 1.12446,1.29323 2.513,1.29323 1.98781,0 2.9699,-0.94045 4.69926,-4.5 2.64059,-5.43513 4.43508,-6.02354 2.28729,-0.75 -3.58273,8.79681 -12.92222,12.342 -17.42697,6.61514 z m 27.1128,2.00381 c -3.52382,-1.55119 -3.273,-5.2251 1.31514,-19.26371 2.47471,-7.57202 4.49948,-14.51834 4.49948,-15.43628 0,-3.28736 -3.00654,-1.58276 -5.43427,3.08104 -2.80903,5.39628 -3.37971,4.32481 -0.94178,-1.76818 3.64568,-9.11145 16.37605,-9.58841 16.37605,-0.61355 0,1.77397 -1.8,8.58325 -4,15.13173 -4.32634,12.87769 -4.76433,15.5 -2.58889,15.5 3.71146,0 11.2455,-13.46773 15.74508,-28.14566 l 2.34381,-7.64565 5,-0.4948 c 2.75,-0.27214 5.17798,-0.32862 5.39551,-0.1255 0.21753,0.20311 -1.69497,7.7016 -4.25,16.66331 -2.55503,8.9617 -4.64551,17.07122 -4.64551,18.02115 0,3.62601 3.17446,1.59233 5.49899,-3.52285 2.56947,-5.65418 3.46829,-4.30928 1.02619,1.53549 -2.93232,7.01804 -11.0386,10.11963 -15.00208,5.74003 -1.75009,-1.93383 -1.72334,-6.19345 0.0734,-11.6881 0.33047,-1.01058 -0.74566,0.41258 -2.39138,3.16258 -4.32569,7.22822 -7.32335,9.66877 -12.39286,10.08964 -2.37175,0.19691 -4.90385,0.0976 -5.62689,-0.22069 z m 43.60396,-2.42576 c -2.8849,-2.88491 -3.02681,-3.38776 -2.52322,-8.94139 1.02278,-11.27941 8.5032,-23.04183 17.23388,-27.09905 4.53296,-2.1065 9.55244,-2.45031 11.23331,-0.76944 0.84441,0.84441 1.52822,-0.23897 2.6825,-4.25 2.42639,-8.43151 2.40035,-10.21497 -0.16581,-11.35659 -3.21087,-1.42844 -2.77987,-2.52417 1,-2.54234 1.7875,-0.009 5.7971,-0.61512 8.91023,-1.34785 3.90047,-0.91804 5.54084,-0.99091 5.27623,-0.23438 -1.78165,5.09372 -14.43646,52.10377 -14.43646,53.6285 0,3.63576 3.06474,2.07723 5.13979,-2.61376 2.38454,-5.39066 3.28647,-5.41573 1.63831,-0.0455 -3.07892,10.03202 -16.7781,11.89555 -16.7781,2.28231 0,-2.63677 -0.0838,-2.60137 -4.32858,1.82874 -3.62514,3.7834 -4.93774,4.51756 -8.07693,4.51756 -2.84697,0 -4.48341,-0.73508 -6.80515,-3.05681 z m 15.11594,-3.54991 c 4.71586,-5.99523 12.11599,-27.28951 10.7346,-30.88936 -0.81072,-2.1127 -3.9051,-1.86974 -6.9787,0.54795 -5.44909,4.28626 -11.92692,23.76887 -10.19602,30.66535 0.77428,3.08497 3.88162,2.92867 6.44012,-0.32394 z m 29.66615,5.03529 c -2.54296,-2.54296 -1.84894,-7.51563 2.92857,-20.98313 2.475,-6.97687 4.5,-13.08127 4.5,-13.56533 0,-0.48406 -0.82308,-0.88011 -1.82906,-0.88011 -1.21582,0 -2.61379,1.67542 -4.16958,4.99709 -2.82832,6.03859 -3.95623,5.79173 -1.60979,-0.35233 2.16088,-5.6582 4.47333,-7.68283 9.55325,-8.36418 4.64812,-0.62345 8.05518,1.52863 8.05518,5.08807 0,1.13227 -2.11945,8.46807 -4.7099,16.30178 -2.59044,7.83371 -4.40985,14.54315 -4.04313,14.90988 1.40545,1.40544 3.97747,-0.7421 5.48493,-4.5797 0.86431,-2.20034 1.95926,-4.00061 2.43321,-4.00061 0.47395,0 0.13983,1.6875 -0.7425,3.75 -0.88233,2.0625 -1.8429,4.32914 -2.1346,5.03699 -1.51872,3.68528 -10.87166,5.4865 -13.71658,2.64158 z m 27.42857,0.29278 c -4.02306,-2.0102 -6.20744,-7.31464 -5.61635,-13.63847 0.6581,-7.04068 5.64585,-17.13547 10.41149,-21.07196 7.07477,-5.84388 18.0687,-6.60396 23.07256,-1.59517 2.36612,2.36844 2.62863,3.36546 2.59605,9.85957 -0.077,15.35086 -10.51432,27.6672 -23.46375,27.68798 -2.475,0.004 -5.625,-0.55491 -7,-1.24195 z m 9.54818,-1.48666 c 1.97576,-1.38485 5.349,-6.89979 7.39459,-12.0895 2.44971,-6.21497 4.47505,-18.34432 3.62719,-21.72248 -1.20317,-4.79379 -6.24206,-2.06238 -10.03746,5.44098 -4.07704,8.06016 -7.14228,22.0885 -5.88061,26.91315 0.57495,2.19859 2.86617,2.88079 4.89629,1.45785 z m -232.47238,-1.48469 c 6.68431,-23.20485 9.00294,-32.00459 8.55171,-32.45583 -1.31438,-1.31438 -3.88961,1.04411 -5.76207,5.27713 -2.54905,5.76253 -3.74204,5.01257 -1.47387,-0.92654 2.14026,-5.60421 4.47157,-7.68259 9.35174,-8.33716 4.78269,-0.64149 7.25501,1.40634 7.26043,6.01383 l 0.004,3.17857 1.91058,-3.13329 c 3.88261,-6.36733 10.18701,-8.26164 14.18611,-4.26254 3.86826,3.86852 0.14677,11.89583 -5.51521,11.89583 -4.75195,0 -6.05857,-4.86231 -2.51664,-9.36514 3.35212,-4.26153 0.40792,-3.01414 -3.40798,1.44388 -3.74076,4.37023 -7.08972,12.43598 -10.65891,25.67126 l -2.22479,8.25 -5.32064,0 -5.32065,0 0.93619,-3.25 z m 206.1242,-44.95 c -4.71677,-4.71677 4.77959,-12.63271 10.675,-8.89842 1.93675,1.22679 1.70921,5.79539 -0.40499,8.13156 -2.02101,2.23319 -8.33241,2.70446 -10.27001,0.76686 z"/>
  </g>
</svg>
