<?xml version="1.0" encoding="UTF-8" standalone="no"?>
<svg
   xmlns:dc="http://purl.org/dc/elements/1.1/"
   xmlns:cc="http://creativecommons.org/ns#"
   xmlns:rdf="http://www.w3.org/1999/02/22-rdf-syntax-ns#"
   xmlns:svg="http://www.w3.org/2000/svg"
   xmlns="http://www.w3.org/2000/svg"
   version="1.1"
   id="svg2"
   viewBox="0 0 672.59339 145.10682"
   height="40.95237mm"
   width="189.8208mm">
  <defs
     id="defs4" />
  <metadata
     id="metadata7">
    <rdf:RDF>
      <cc:Work
         rdf:about="">
        <dc:format>image/svg+xml</dc:format>
        <dc:type
           rdf:resource="http://purl.org/dc/dcmitype/StillImage" />
        <dc:title></dc:title>
      </cc:Work>
    </rdf:RDF>
  </metadata>
  <g
     transform="translate(-158.45786,-702.06542)"
     id="layer1">
    <path
       id="path3360"
       d="m 162.57809,845.93289 c -2.07021,-1.31078 6.48327,-18.17701 36.24424,-71.46842 21.42465,-38.36401 39.76522,-70.6264 40.75682,-71.69422 1.132,-1.21901 2.88112,-0.8416 4.7004,1.01421 2.52002,2.57062 -2.20202,12.06031 -36.2463,72.84259 -21.52908,38.4378 -39.95417,70.14219 -40.94464,70.45421 -0.99047,0.31202 -3.0202,-0.20474 -4.51052,-1.14837 z m 155.55875,-1.21866 c -0.61167,-0.61167 0.54497,-10.91204 2.57031,-22.88972 5.64827,-33.40342 4.3453,-30.90542 16.12049,-30.90542 12.39938,0 21.26732,4.2285 22.95297,10.94466 1.62398,6.47041 -1.3711,14.18798 -7.04971,18.16544 -4.40856,3.08787 -4.43115,3.32396 -1.14224,11.93586 4.47625,11.72089 4.27424,14.13641 -1.1169,13.35504 -3.35629,-0.48645 -5.21659,-3.05227 -7.45555,-10.28312 -2.57871,-8.32806 -3.71435,-9.63494 -8.37251,-9.63494 -4.81398,0 -5.58779,1.02661 -7.25041,9.61918 -1.69438,8.75671 -5.84568,13.10379 -9.25645,9.69302 z m 28.24214,-30.58347 c 5.21211,-3.6507 6.00053,-12.06292 1.29964,-13.86682 -4.46403,-1.713 -12.60327,-1.53999 -13.64685,0.29009 -0.47712,0.83672 -1.48514,4.94424 -2.24003,9.12783 -1.32037,7.31748 -1.15494,7.60654 4.35328,7.60654 3.14919,0 7.75447,-1.42094 10.23396,-3.15764 z m 38.99109,26.85687 c 0,-4.66264 2.28861,-18.96326 6.30855,-39.4194 l 2.09271,-10.64914 16.08345,0 c 14.73118,0 16.08346,0.34109 16.08346,4.05681 0,3.59788 -1.35228,4.05682 -11.95344,4.05682 -12.42552,0 -14.41587,1.42318 -14.41587,10.30794 0,3.32433 1.49852,3.89092 10.29076,3.89092 8.70554,0 10.18683,0.54681 9.61596,3.54971 -0.51932,2.73166 -3.07607,3.68933 -11.09422,4.15551 -8.75869,0.50925 -10.6102,1.31749 -11.61666,5.07103 -2.86559,10.6872 -2.05163,11.56465 10.72789,11.56465 10.9819,0 11.89211,0.33816 10.91967,4.05682 -0.94771,3.62403 -2.76679,4.05681 -17.05157,4.05681 -15.36637,0 -15.99069,-0.18344 -15.99069,-4.69848 z m 62.89411,2.4447 c 0.007,-1.54948 1.8269,-13.31425 4.04336,-26.14393 2.21647,-12.82969 4.03597,-24.01129 4.04337,-24.84801 0.0235,-2.66908 18.25758,-1.63145 24.06017,1.36919 14.65874,7.58032 13.51553,35.00517 -1.93078,46.31841 -6.79042,4.97346 -30.23633,7.53743 -30.21612,3.30434 z m 27.00339,-11.69109 c 2.03733,-2.03733 4.56967,-7.55606 5.62745,-12.26386 2.66697,-11.86985 -0.9297,-19.20524 -9.8388,-20.06607 -3.61803,-0.3496 -6.57948,-0.3496 -6.581,0 -0.002,0.34959 -1.36944,8.39428 -3.03984,17.87709 -1.67039,9.48281 -3.03831,18.04015 -3.03983,19.01632 -0.004,2.91597 12.87662,-0.56809 16.87202,-4.56348 z m 43.56994,12.86123 c -0.59598,-0.596 0.62583,-10.86481 2.71515,-22.81959 6.0976,-34.88942 4.10694,-31.5813 18.23322,-30.30038 7.45907,0.67637 13.73425,2.48384 16.12035,4.64323 5.00082,4.52567 5.01621,13.44483 0.031,17.95639 -3.59888,3.25695 -3.64937,3.90254 -0.70625,9.03063 4.43396,7.7257 0.15335,16.57232 -9.64041,19.92337 -7.25043,2.48082 -24.81044,3.50894 -26.75303,1.56635 z m 25.56756,-9.67915 c 2.22701,-1.62842 3.35333,-4.55925 2.9232,-7.60653 -0.56209,-3.9822 -2.05445,-5.08673 -7.58647,-5.61495 -7.7233,-0.73746 -10.27644,1.80795 -10.32368,10.29252 -0.0266,4.76866 0.79572,5.57812 5.66648,5.57812 3.13365,0 7.32787,-1.19212 9.32047,-2.64916 z m 2.90803,-23.4735 c 1.49214,-0.9458 2.40492,-3.89837 2.02841,-6.56127 -0.57096,-4.03814 -1.84894,-4.84163 -7.70083,-4.84163 -6.28697,0 -7.15643,0.68526 -8.36457,6.59233 -1.29307,6.32246 -1.08889,6.59106 4.98788,6.56127 3.48486,-0.017 7.55697,-0.8049 9.04911,-1.7507 z m 38.88285,31.78611 c 0.007,-1.44146 1.8269,-13.11785 4.04336,-25.94753 2.21647,-12.82969 4.03597,-24.01129 4.04337,-24.84801 0.0142,-1.67662 6.86432,-2.10793 8.44074,-0.53151 0.54438,0.54439 -0.63339,9.90042 -2.61732,20.79119 -1.9839,10.89076 -3.64635,20.94237 -3.69434,22.3369 -0.0596,1.73555 3.47953,2.53551 11.21775,2.53551 9.6726,0 11.20712,0.51256 10.62715,3.54971 -0.56381,2.95265 -3.31827,3.64936 -16.37599,4.14214 -11.78967,0.44493 -15.69483,-0.0601 -15.68472,-2.0284 z m 58.81039,0.20843 c 0,-1.23296 6.00194,-13.55554 13.33764,-27.38351 9.92439,-18.70772 14.32677,-25.14176 17.20283,-25.14176 4.2401,0 4.04576,-0.56358 10.04407,29.1281 4.99877,24.744 4.99643,25.63892 -0.0671,25.63892 -2.9412,0 -4.45311,-1.7279 -5.32458,-6.08522 -1.15444,-5.7722 -1.73057,-6.08523 -11.19987,-6.08523 -8.96561,0 -10.33493,0.61877 -13.43821,6.0724 -3.32389,5.84133 -10.5548,8.48322 -10.5548,3.8563 z m 31.30471,-27.67727 c -0.76911,-5.29922 -1.67646,-9.9539 -2.01632,-10.34373 -0.33986,-0.38984 -2.97663,3.94588 -5.85948,9.63493 l -5.24157,10.34374 7.25789,0 7.25789,0 -1.39841,-9.63494 z m 43.12157,28.39772 c -0.47534,-0.83672 1.12455,-12.93111 3.55527,-26.87641 l 4.41952,-25.35511 11.4233,0.0457 c 9.08527,0.0363 12.43863,0.99954 16.38399,4.706 13.69688,12.86757 4.67793,41.57497 -14.75785,46.97424 -8.55502,2.37659 -19.80759,2.64719 -21.02423,0.50558 z m 21.97979,-9.01564 c 6.82673,-3.11047 11.09957,-11.4532 11.09957,-21.67197 0,-9.64148 -4.46919,-14.9115 -11.91284,-14.0475 -4.82956,0.56058 -5.54212,1.82727 -7.76393,13.80188 -4.55344,24.54083 -3.43769,27.39194 8.5772,21.91759 z m 47.62437,8.08347 c 0.007,-1.43965 1.82691,-13.11456 4.04337,-25.94424 2.21646,-12.82969 4.03597,-24.01129 4.04337,-24.84801 0.008,-0.83672 7.86976,-1.5213 17.47194,-1.5213 15.08649,0 17.29121,0.43592 16.22727,3.20851 -0.67719,1.76468 -1.23123,3.59025 -1.23123,4.05681 0,0.46657 -5.37025,0.84831 -11.93388,0.84831 -10.66119,0 -12.0643,0.48671 -13.15694,4.56392 -2.3791,8.87753 -1.68232,9.63494 8.86355,9.63494 8.78977,0 10.14205,0.54091 10.14205,4.05682 0,3.55364 -1.35228,4.05681 -10.9027,4.05681 -10.58829,0 -10.93925,0.1828 -12.17045,6.33878 -0.69726,3.48633 -1.26775,7.13746 -1.26775,8.11363 0,0.97617 5.54364,1.77486 12.31917,1.77486 10.63868,0 12.22666,0.48423 11.64091,3.54971 -0.56923,2.97909 -3.36478,3.64443 -17.39019,4.13885 -12.60617,0.4444 -16.70863,-0.0539 -16.69849,-2.0284 z m -565.93938,-33.90915 0,-20.43281 9.69071,0 c 5.48793,0 11.64585,1.36943 14.19886,3.15763 5.35083,3.74787 5.95164,12.16936 1.23966,17.37604 -3.01781,3.33464 -2.94209,4.13977 0.98731,10.49768 2.3407,3.78733 3.65939,7.48247 2.93043,8.21143 -3.15159,3.15159 -6.9343,0.77208 -10.7913,-6.78825 -5.29884,-10.38658 -9.69048,-10.60518 -10.5267,-0.52397 -0.43997,5.30419 -1.69847,7.79223 -4.17926,8.26237 -3.19027,0.60458 -3.54971,-1.3963 -3.54971,-19.76012 z m 19.95922,-7.0051 c 0.79056,-4.16423 -2.72509,-7.26268 -8.29587,-7.31143 -2.6157,-0.0229 -3.54972,1.60557 -3.54972,6.1889 0,5.58451 0.5681,6.15439 5.56078,5.57812 3.52075,-0.40637 5.8264,-2.04095 6.28481,-4.45559 z m -83.94771,-42.35217 c -0.60255,-1.57024 -0.82799,-10.53734 -0.50097,-19.9269 l 0.59459,-17.07191 12.67756,-0.6039 c 11.62036,-0.55353 12.67755,-0.25752 12.67755,3.54972 0,3.4936 -1.28925,4.15361 -8.11363,4.15361 -6.76137,0 -8.11364,0.67613 -8.11364,4.05681 0,3.28409 1.35227,4.05682 7.09943,4.05682 5.74716,0 7.09943,0.77273 7.09943,4.05682 0,3.27052 -1.35227,4.05681 -6.97698,4.05681 -6.5951,0 -7.01145,0.41543 -7.60653,7.58966 -0.65224,7.86319 -6.58616,11.94756 -8.83681,6.08246 z m 158.63317,-10.1224 c 0.59556,-3.62578 2.59194,-15.26378 4.43639,-25.86221 l 3.35355,-19.26988 16.98442,-0.59317 c 14.98198,-0.52325 16.83536,-0.20476 15.72016,2.7014 -0.69534,1.81203 -1.26425,3.67633 -1.26425,4.14289 0,0.46657 -5.37684,0.84831 -11.94853,0.84831 l -11.94853,0 -0.82882,7.09943 -0.82882,7.09943 9.73474,0 c 8.2954,0 9.73474,0.58415 9.73474,3.95081 0,3.33594 -1.65737,4.04624 -10.64915,4.56392 l -10.64914,0.61311 -1.80659,10.64914 c -1.56596,9.23071 -2.42705,10.64914 -6.4648,10.64914 -4.12527,0 -4.53433,-0.75422 -3.57537,-6.59232 z m 64.40535,-2.02841 c 0.74398,-4.74141 2.80217,-16.60759 4.57378,-26.36931 l 3.22111,-17.74857 12.92695,0 c 10.22239,0 13.77569,0.84876 16.98374,4.05681 6.03192,6.03193 5.26374,15.50061 -1.79228,22.09192 l -5.8491,5.46388 3.81903,10.0559 c 2.10047,5.53074 3.81979,10.2841 3.82071,10.563 8.9e-4,0.27891 -2.20695,0.5071 -4.90636,0.5071 -4.08819,0 -5.4707,-1.6941 -8.27665,-10.14204 -2.76397,-8.32154 -4.22072,-10.14204 -8.11548,-10.14204 -3.73098,0 -5.0308,1.41082 -6.07365,6.59233 -2.43883,12.11748 -3.30176,13.69175 -7.50511,13.69175 -3.77681,0 -4.04907,-0.83033 -2.82669,-8.62073 z m 29.18627,-22.21107 c 1.33874,-1.33875 2.43409,-4.98989 2.43409,-8.11364 0,-5.24543 -0.60208,-5.67954 -7.87707,-5.67954 -6.45413,0 -8.09799,0.82443 -9.10012,4.56392 -2.58115,9.6315 -1.63776,11.66335 5.41526,11.66335 3.68156,0 7.78909,-1.09534 9.12784,-2.43409 z m 34.88862,29.60426 c 0,-0.67515 6.00194,-12.54134 13.33764,-26.36931 11.01555,-20.76461 14.1319,-25.14176 17.89987,-25.14176 4.22116,0 4.89264,1.7819 8.98118,23.8338 5.36147,28.91752 5.36125,28.90481 0.51065,28.90481 -2.67922,0 -4.313,-1.90013 -5.23219,-6.08522 -1.25407,-5.70973 -1.92543,-6.08523 -10.88008,-6.08523 -8.45285,0 -9.95436,0.69546 -13.13817,6.08523 -2.03256,3.44088 -5.30769,6.08522 -7.53677,6.08522 -2.16817,0 -3.94213,-0.55239 -3.94213,-1.22754 z m 32.4322,-21.59205 c -0.0122,-1.39453 -0.60986,-6.09261 -1.32798,-10.44017 l -1.30566,-7.90467 -4.66559,8.91887 c -6.02705,11.52153 -5.98159,11.96148 1.23634,11.96148 3.52781,0 6.07583,-1.06559 6.06289,-2.53551 z m 43.76372,17.24147 c 0.57388,-3.06797 2.64987,-14.70596 4.61333,-25.86221 3.36442,-19.11627 3.85234,-20.28408 8.47457,-20.28408 4.2183,0 5.89616,2.34171 11.99041,16.73437 3.89718,9.2039 7.65937,16.73437 8.36041,16.73437 0.70104,0 2.42892,-7.75866 3.83972,-17.24147 2.37711,-15.97787 2.912,-17.24147 7.29851,-17.24147 5.30573,0 5.3774,-2.9601 -0.78584,32.45453 -3.10969,17.86865 -3.69726,19.26988 -8.08035,19.26988 -3.98079,0 -5.87883,-2.64786 -12.02621,-16.77719 -4.01467,-9.22746 -7.92237,-16.07334 -8.68378,-15.21307 -0.7614,0.86027 -2.55281,8.63821 -3.98089,17.2843 -2.37436,14.37508 -3.00152,15.72016 -7.3299,15.72016 -4.06434,0 -4.58591,-0.78841 -3.68998,-5.57812 z m 82.94195,0.5993 c -9.09157,-9.09155 -5.94452,-32.61407 5.81354,-43.4532 7.85148,-7.23787 20.52613,-7.04987 26.93383,0.39952 5.9932,6.96753 6.44218,13.54956 0.92424,13.54956 -2.3065,0 -5.05353,-2.31774 -6.61133,-5.57812 -6.45056,-13.5007 -20.58595,-4.60773 -22.96696,14.44914 -1.66345,13.3139 0.58082,17.49829 9.38512,17.49829 3.93779,0 6.85306,-1.62227 9.11277,-5.07102 3.69097,-5.63315 10.96971,-6.87553 10.96971,-1.87238 0,1.75926 -2.66812,5.86678 -5.9292,9.12784 -7.88998,7.88998 -20.26645,8.31566 -27.63172,0.95037 z m 71.96955,1.2237 c -6.40805,-5.18892 -7.81566,-24.5715 -2.51568,-34.64045 8.12266,-15.43151 25.21075,-20.18961 34.35,-9.56459 8.95034,10.40536 5.46003,34.25268 -6.37583,43.56278 -7.00568,5.51066 -19.07039,5.81503 -25.45849,0.64226 z m 21.20808,-7.46956 c 3.30671,-3.30671 7.29065,-15.46098 7.30945,-22.29982 0.0163,-5.94046 -5.64396,-13.12889 -10.33794,-13.12889 -10.4303,0 -19.68595,21.78111 -14.28902,33.62607 2.63573,5.78483 12.32657,6.79359 17.31751,1.80264 z m 44.97693,5.64656 c 0.57388,-3.06797 2.64617,-14.70596 4.60508,-25.86221 3.25016,-18.50999 3.97811,-20.34409 8.32309,-20.97018 4.24038,-0.61102 4.64041,-0.0561 3.65574,5.07102 -0.60812,3.16642 -2.7228,15.11316 -4.69928,26.54831 -3.33657,19.30407 -3.92744,20.79118 -8.26081,20.79118 -3.99217,0 -4.51629,-0.80678 -3.62382,-5.57812 z m 48.45901,0.5993 c -6.41304,-6.41302 -6.47509,-11.24844 -0.14439,-11.24844 3.17923,0 5.20946,1.43407 5.92977,4.18853 0.90709,3.46873 2.42922,4.07875 8.85731,3.54971 6.66734,-0.54872 7.84891,-1.38825 8.37836,-5.95298 0.52065,-4.48906 -0.58162,-5.79383 -7.09943,-8.40359 -15.61635,-6.25284 -19.33527,-18.2786 -8.21,-26.54839 8.26436,-6.14318 19.11365,-5.52337 25.09796,1.43382 2.6445,3.0744 4.80816,6.90809 4.80816,8.51931 0,4.49628 -8.32574,3.57076 -9.53674,-1.06013 -1.46086,-5.58634 -7.98021,-7.10302 -13.88927,-3.23125 -7.94637,5.20667 -6.04234,9.25895 6.75675,14.38013 13.47474,5.39152 16.60877,15.39813 7.63362,24.37328 -7.03444,7.03445 -21.54767,7.03445 -28.5821,0 z"
       style="fill:#0d0d0d" />
  </g>
</svg>
