<?xml version="1.0" encoding="UTF-8" standalone="no"?>
<svg
   xmlns:dc="http://purl.org/dc/elements/1.1/"
   xmlns:cc="http://creativecommons.org/ns#"
   xmlns:rdf="http://www.w3.org/1999/02/22-rdf-syntax-ns#"
   xmlns:svg="http://www.w3.org/2000/svg"
   xmlns="http://www.w3.org/2000/svg"
   version="1.1"
   id="svg2"
   viewBox="0 0 744.326 158.05324"
   height="44.606136mm"
   width="210.06534mm">
  <defs
     id="defs4" />
  <metadata
     id="metadata7">
    <rdf:RDF>
      <cc:Work
         rdf:about="">
        <dc:format>image/svg+xml</dc:format>
        <dc:type
           rdf:resource="http://purl.org/dc/dcmitype/StillImage" />
        <dc:title></dc:title>
      </cc:Work>
    </rdf:RDF>
  </metadata>
  <g
     transform="translate(-31.785715,-696.86231)"
     id="layer1">
    <path
       id="path3347"
       d="m 31.785715,846.15464 c 0,-4.81849 0.308779,-8.36665 0.686175,-7.8848 0.377397,0.48185 2.820009,4.42425 5.428028,8.76089 l 4.741852,7.88481 -5.428027,0 c -4.967142,0 -5.428028,-0.74387 -5.428028,-8.7609 z m 11.728992,-0.99282 c -4.17568,-7.4711 -4.895596,-10.42349 -3.076232,-12.61569 4.179399,-5.03587 6.959487,-3.09858 14.032786,9.77867 l 6.91593,12.59074 -6.210513,0 c -5.202954,0 -7.094926,-1.58238 -11.661971,-9.75372 z m 17.093194,-3.57338 c -8.885327,-15.18923 -9.29182,-17.26365 -3.943757,-20.12585 3.32888,-1.78156 5.114344,0.13005 13.141349,14.06984 5.108992,8.87233 9.604469,16.86312 9.989948,17.75731 0.38548,0.89419 -2.019914,1.6258 -5.345319,1.6258 -5.203921,0 -7.132224,-1.85654 -13.842221,-13.3271 z m 46.185279,5.72146 c 5.58166,-4.1831 14.59591,-11.9073 20.03167,-17.16488 8.39053,-8.1155 10.37528,-9.15085 13.14135,-6.85521 5.38733,4.47109 3.85782,7.60146 -9.71586,19.88493 -12.03863,10.89434 -13.71773,11.7408 -23.28983,11.7408 l -10.315813,0 10.148483,-7.60564 z m 30.7491,-2.93247 c 5.79596,-5.79596 10.65941,-10.2903 10.80768,-9.98742 0.14825,0.30288 1.50927,2.17314 3.02446,4.15615 2.33427,3.05497 2.06105,4.5799 -1.78945,9.98743 -3.8517,5.4092 -5.91894,6.38195 -13.56258,6.38195 l -9.01822,0 10.53811,-10.53811 z m 16.79589,6.93363 c 3.40424,-3.40423 3.80474,-3.40423 7.20897,0 3.40424,3.40424 3.20399,3.60448 -3.60448,3.60448 -6.80847,0 -7.00872,-0.20025 -3.60449,-3.60448 z m 11.84258,-3.38082 c -10.61909,-13.06959 -30.9058,-40.58266 -42.58114,-57.74904 -10.34289,-15.20726 -11.52353,-17.95077 -9.27464,-21.55181 1.41731,-2.26948 3.16376,-4.12632 3.88099,-4.12632 0.71723,0 5.42822,6.38669 10.46887,14.19265 8.15223,12.62458 36.57122,50.83724 51.60303,69.38632 l 5.53775,6.8335 -7.10298,-0.1518 c -5.3362,-0.11405 -8.45334,-1.81379 -12.53188,-6.83351 z m -82.419141,0.0359 c -3.050069,-4.65499 -2.768264,-5.05962 8.706124,-12.50054 6.522024,-4.2294 16.553547,-12.4644 22.292257,-18.3 5.73873,-5.83561 11.14595,-10.61019 12.01607,-10.61019 0.87011,0 2.65255,2.0003 3.96097,4.44511 2.08077,3.88795 1.23351,5.62604 -6.75952,13.86667 -7.55493,7.78897 -23.5673,20.03433 -34.665523,26.51025 -1.319053,0.76967 -3.816723,-0.76541 -5.550378,-3.4113 z m 87.665841,-20.5721 c -21.54208,-27.73341 -32.0879,-42.20053 -41.5894,-57.05376 -7.30424,-11.41837 -7.42813,-11.94063 -3.87388,-16.32995 3.64554,-4.50205 3.77617,-4.37979 18.34822,17.17188 8.07209,11.93841 21.58731,30.55142 30.03381,41.36225 14.0464,17.97823 15.30295,20.38516 14.72084,28.19778 l -0.63644,8.54173 -17.00315,-21.88993 z m -94.953186,8.01063 c -4.798087,-6.21485 -4.175532,-7.60175 6.633959,-14.77884 6.208333,-4.12211 16.079026,-12.28588 21.934877,-18.14173 5.85585,-5.85585 11.13185,-10.647 11.72445,-10.647 0.5926,0 2.14925,2.00266 3.45922,4.45036 2.09619,3.91677 1.15968,5.70494 -7.81084,14.91393 -14.306721,14.68706 -33.375047,27.52776 -35.941666,24.20328 z m -44.688549,-12.6263 c 0,-5.4545 1.335346,-7.69463 6.353993,-10.65921 12.653283,-7.47448 39.282865,-29.97085 59.166684,-49.98333 17.239428,-17.35099 20.831288,-20.06797 23.728908,-17.94918 3.01544,2.20494 2.09575,4.09082 -7.86974,16.13747 -15.825452,19.13038 -44.051212,45.29142 -62.924239,58.32133 -8.793912,6.0713 -16.543932,11.03873 -17.222268,11.03873 -0.678336,0 -1.233338,-3.10761 -1.233338,-6.90581 z M 290.278,821.93717 c -1.16016,-3.25599 -9.4116,-25.28509 -18.33655,-48.95356 -14.38091,-38.13741 -16.82396,-43.17164 -21.47265,-44.24712 -2.88502,-0.66745 -5.5564,-2.82787 -5.93636,-4.80094 -0.61266,-3.18126 1.60535,-3.58739 19.59232,-3.58739 18.18275,0 20.21058,0.38105 19.58189,3.67958 -0.38572,2.02377 -2.82053,3.98193 -5.41072,4.35147 -2.59017,0.36954 -4.7094,1.96213 -4.7094,3.53908 0,2.31202 21.7294,66.83969 26.54982,78.84235 0.70555,1.75685 7.222,-14.54234 14.71097,-36.79577 7.39437,-21.97234 12.99259,-41.13243 12.44046,-42.57797 -0.55213,-1.44555 -2.92592,-2.62827 -5.2751,-2.62827 -2.86947,0 -4.27122,-1.38009 -4.27122,-4.20523 0,-3.85798 1.40175,-4.20524 16.97509,-4.20524 14.8688,0 16.88939,0.44514 16.28424,3.58739 -0.37997,1.97307 -3.05134,4.13704 -5.93636,4.80883 -4.73272,1.10204 -6.88987,5.94143 -22.06643,49.50367 l -16.82092,48.28221 -6.89484,0.66345 c -5.92839,0.57045 -7.19052,-0.16638 -9.00424,-5.25654 z m 65.31055,1.52103 c 0,-3.17116 1.36827,-4.28709 5.25654,-4.28709 l 5.25654,0 0,-31.49918 0,-31.49918 -5.25654,-1.31931 c -2.8911,-0.72562 -5.25654,-2.636 -5.25654,-4.24529 0,-2.17314 3.23287,-2.92598 12.56485,-2.92598 l 12.56485,0 0.5765,35.12601 0.57649,35.12602 5.25654,1.2389 c 2.8911,0.6814 5.25654,2.61551 5.25654,4.29803 0,2.39773 -3.9777,3.19048 -18.39789,3.66665 -17.31188,0.57165 -18.39788,0.35445 -18.39788,-3.67958 z m 45.09301,1.83755 c -1.74875,-2.82955 0.87511,-5.47498 6.42107,-6.47387 4.04285,-0.72816 4.22702,-2.63739 4.76922,-49.44008 l 0.56396,-48.68268 -6.34615,-1.39385 c -3.49041,-0.76662 -6.34618,-2.73794 -6.34618,-4.38071 0,-2.27358 3.25514,-2.98686 13.6309,-2.98686 l 13.6309,0 0.56175,53.09105 0.56176,53.09105 4.73089,0.67189 c 3.04029,0.43179 4.73088,2.12238 4.73088,4.73089 0,3.68966 -1.61489,4.05899 -17.74814,4.05899 -10.51236,0 -18.3241,-0.93191 -19.16086,-2.28582 z m 45.31946,-1.69131 c 0,-2.6934 1.65371,-4.37572 4.73089,-4.81275 l 4.73088,-0.67189 0.56382,-48.6483 0.56384,-48.6483 -5.29472,-1.32888 c -2.91208,-0.73089 -5.29471,-2.73013 -5.29471,-4.44275 0,-2.4031 2.8714,-3.11387 12.5796,-3.11387 l 12.57959,0 0.56176,52.99725 0.56175,52.99725 5.25654,1.2399 c 2.8911,0.68195 5.25654,2.61651 5.25654,4.29903 0,2.39773 -3.97771,3.19048 -18.39789,3.66665 -17.10646,0.56487 -18.39789,0.31685 -18.39789,-3.53334 z m 54.13656,-0.19485 c -7.02709,-5.52751 -8.65916,-13.01946 -4.83171,-22.17983 3.47977,-8.32827 13.50994,-13.88463 32.36281,-17.92785 9.88852,-2.1207 10.84744,-2.84083 10.84744,-8.14621 0,-9.53704 -4.06928,-18.32612 -9.66537,-20.87587 -6.44096,-2.9347 -7.51742,-2.95018 -14.72022,-0.21168 -4.35936,1.65742 -5.14908,2.76749 -3.29081,4.62576 7.40602,7.40602 -1.33888,18.90746 -9.8456,12.94912 -9.76394,-6.83893 -1.65125,-20.04773 14.95929,-24.35623 12.20779,-3.16649 25.19695,0.48919 31.28839,8.80583 5.08648,6.94459 8.09524,23.85306 8.09524,45.49323 0,17.50712 0.0241,17.58525 5.43175,17.58525 7.85046,0 5.27826,4.8609 -3.7822,7.14758 -9.76897,2.4655 -14.26524,0.5648 -14.26524,-6.03029 0,-6.06479 -2.43548,-6.83452 -6.4229,-2.02996 -8.00138,9.64107 -27.0104,12.34892 -36.16087,5.15115 z m 31.89054,-10.02068 c 6.43793,-6.00987 10.28534,-20.08566 6.90131,-25.24849 -2.17135,-3.31271 -19.67647,1.44943 -25.84353,7.03054 -4.57205,4.13764 -5.49264,17.46762 -1.48326,21.47701 4.38027,4.38027 13.86281,2.86725 20.42548,-3.25906 z m 53.16607,11.66952 c -1.75605,-1.75605 -2.52314,-12.94277 -2.52314,-36.79578 l 0,-34.27263 -7.35916,0 c -4.04753,0 -7.35915,-0.84495 -7.35915,-1.87766 0,-2.27766 5.19163,-4.43019 10.68505,-4.43019 3.36252,0 4.03326,-1.53274 4.03326,-9.21666 0,-8.38019 0.52368,-9.31676 5.77021,-10.31969 8.00394,-1.53006 8.9481,-0.45395 8.9481,10.19867 l 0,9.33768 9.46177,0 c 7.00871,0 9.46177,0.81768 9.46177,3.15392 0,2.33893 -2.45914,3.15393 -9.51654,3.15393 l -9.51653,0 0.58041,32.06489 0.58043,32.06489 6.8335,0.65887 c 8.65369,0.83437 8.74135,3.52121 0.2119,6.49459 -8.66976,3.02229 -17.14448,2.93257 -20.29188,-0.21483 z m 54.24748,-2.0513 c -21.10097,-14.17262 -20.88566,-56.03742 0.36903,-71.75272 7.93389,-5.86616 24.04215,-6.89311 33.12337,-2.11172 10.57988,5.57048 15.41205,13.41826 16.52488,26.83759 l 0.96623,11.65159 -25.49175,0 -25.49176,0 0,6.41226 c 0,7.92765 5.00799,17.97551 10.39662,20.85941 6.91718,3.70197 22.13238,2.59423 28.02421,-2.04028 2.94034,-2.31288 6.37956,-4.20523 7.64271,-4.20523 4.81493,0 1.98794,6.32928 -5.31493,11.89945 -10.92475,8.33271 -30.25908,9.49502 -40.74861,2.44965 z m 35.74447,-50.18915 c 0,-14.45568 -13.22627,-23.15029 -25.34785,-16.66302 -5.10888,2.73419 -10.39662,12.80863 -10.39662,19.80811 0,5.32573 0.11743,5.36095 17.87224,5.36095 l 17.87223,0 0,-8.50604 z m 22.13653,52.75655 c -1.75651,-2.84209 0.46617,-6.40342 3.99646,-6.40342 3.36389,0 27.72606,-28.98668 26.8786,-31.98077 -1.60251,-5.66165 -23.09292,-31.14739 -27.25455,-32.32149 -2.60198,-0.73409 -4.73088,-2.65141 -4.73088,-4.2607 0,-2.23948 3.69991,-2.92598 15.76962,-2.92598 15.84308,0 19.45005,2.0308 12.65911,7.12736 -2.63727,1.97924 -1.80852,4.0328 5.44708,13.4975 l 8.5576,11.16309 8.15941,-10.9361 c 8.06067,-10.80375 8.80641,-14.544 2.89978,-14.544 -1.6664,0 -3.02982,-1.41927 -3.02982,-3.15393 0,-2.48001 2.9203,-3.15392 13.667,-3.15392 10.46097,0 13.667,0.70661 13.667,3.01223 0,1.65673 -1.76353,3.57196 -3.91896,4.25606 -2.15541,0.68411 -7.99696,6.18839 -12.98121,12.23174 -4.98423,6.04334 -10.2737,12.43378 -11.75434,14.20096 -2.27604,2.71649 -0.58896,5.88484 10.91609,20.50051 7.48449,9.50809 15.01057,17.28744 16.7246,17.28744 1.71469,0 3.11644,1.89148 3.11644,4.20523 0,3.83143 -1.40175,4.20523 -15.76962,4.20523 -14.36787,0 -15.76962,-0.3738 -15.76962,-4.20523 0,-2.33624 1.40175,-4.20523 3.15392,-4.20523 4.92422,0 3.82201,-2.98242 -5.42603,-14.68208 l -8.57995,-10.85446 -8.24097,11.0454 c -4.53253,6.07497 -8.24097,11.71033 -8.24097,12.52303 0,0.81271 1.99203,1.99857 4.42676,2.63527 2.4347,0.63669 4.01543,2.40285 3.51269,3.92481 -1.13491,3.43578 -25.85769,5.04353 -27.85524,1.81145 z M 66.3478,818.95899 c -0.786809,-1.27308 0.340071,-3.92843 2.504179,-5.90077 2.164109,-1.97234 11.790221,-11.07785 21.391359,-20.23447 13.977122,-13.33 17.847362,-16.0305 19.417002,-13.54842 1.07821,1.70498 1.97487,4.47102 1.99258,6.14674 0.0576,5.44605 -35.349743,35.85162 -41.749216,35.85162 -1.168939,0 -2.769095,-1.04161 -3.555904,-2.3147 z m 105.03157,-20.05613 c -9.37816,-12.55947 -20.08058,-27.34788 -23.78316,-32.86312 l -6.73194,-10.02772 11.16746,5.51672 c 9.53673,4.71115 13.10702,8.36705 24.44978,25.03609 11.34908,16.67831 13.18531,20.65859 12.61571,27.3464 l -0.66662,7.82704 -17.05123,-22.83541 z m -139.461803,1.94431 c 0.122955,-7.42176 1.179464,-8.72059 15.657306,-19.24852 8.539,-6.20934 24.53233,-19.74297 35.540732,-30.07472 17.780485,-16.68758 20.502095,-18.52446 24.375325,-16.45157 4.28961,2.29573 4.25384,2.46754 -2.21394,10.63377 -11.084418,13.99522 -57.201774,54.38195 -69.793517,61.12084 -3.234063,1.73082 -3.681224,0.98096 -3.565906,-5.9798 z m 148.170993,-18.7848 c -5.34546,-8.05084 -6.73322,-11.43491 -4.30758,-10.50411 1.96817,0.75526 5.85605,1.94483 8.63971,2.64348 4.38538,1.10066 5.06121,2.50329 5.06121,10.50412 0,5.0786 -0.33913,9.23383 -0.75362,9.23383 -0.41449,0 -4.30237,-5.34479 -8.63972,-11.87732 z M 31.785715,778.57318 c 0,-6.00434 1.70873,-8.52269 11.038733,-16.26905 6.071303,-5.04078 18.866163,-16.7318 28.433025,-25.98006 l 17.39429,-16.81501 4.609897,4.6099 4.609897,4.60989 -9.388495,9.68025 c -10.309527,10.6299 -47.166245,42.1035 -53.017769,45.27424 -3.171734,1.71866 -3.679578,1.01337 -3.679578,-5.11016 z M 167.13448,761.70531 C 138.65606,750.15415 98.693536,723.96169 80.259067,704.76495 l -7.245965,-7.54559 7.769233,0 c 6.270574,0 10.507401,2.21053 21.964275,11.45971 22.90932,18.49477 56.29236,36.99939 83.05572,46.03877 4.32632,1.46122 5.27183,14.01188 1.0513,13.95509 -1.44556,-0.0196 -10.31917,-3.15488 -19.71915,-6.96762 z M 31.799646,754.62012 c 0.01292,-7.40828 1.554359,-9.42611 21.195934,-27.74657 l 21.182003,-19.75729 5.108837,5.10884 5.108839,5.10883 -23.168922,20.88283 C 31.779421,764.75813 31.781971,764.75671 31.799646,754.62012 Z M 171.33971,742.78177 c -19.76277,-8.016 -40.53348,-19.96834 -59.7475,-34.38122 l -13.504294,-10.12988 9.059744,-0.6543 c 6.96817,-0.50324 10.60076,0.50788 15.73471,4.37969 11.70428,8.82688 35.6243,21.84196 51.35556,27.94297 14.66692,5.68823 15.24397,6.17575 15.24397,12.87888 0,3.83176 -0.23654,6.95093 -0.52565,6.93147 -0.28911,-0.0196 -8.21656,-3.15488 -17.61654,-6.96761 z M 31.834623,728.55882 c 0.04557,-8.63019 0.894954,-10.015 12.451513,-20.30073 12.490643,-11.11709 18.699117,-13.36111 22.914207,-8.28224 1.759452,2.12001 -0.97272,5.90165 -11.832586,16.37763 -7.766149,7.49162 -16.249169,15.38653 -18.851156,17.54424 l -4.730886,3.9231 0.04891,-9.262 z m 335.468497,1.1009 c -4.33197,-4.33197 -4.17417,-7.87242 0.54103,-12.13963 6.87633,-6.22299 15.0784,-2.96902 15.0784,5.98197 0,8.85444 -9.26866,12.50843 -15.61943,6.15766 z m -192.7736,-5.85434 c -14.27052,-5.8703 -39.5976,-19.5099 -43.84577,-23.61261 -5.98264,-5.77779 13.568,-3.56946 26.79321,3.0264 6.61655,3.2999 16.52442,7.68624 22.01751,9.74743 8.71782,3.27121 9.98743,4.51316 9.98743,9.76981 0,7.20688 -0.0267,7.20879 -14.95238,1.06897 z M 31.785715,705.9763 c 0,-7.20004 2.950134,-9.55855 10.504067,-8.39756 4.177121,0.64199 3.960529,1.21489 -3.001009,7.93789 l -7.503058,7.24597 0,-6.7863 z m 139.823945,-2.37218 -12.6157,-6.02387 15.24397,-0.18044 15.24397,-0.18045 0,6.30785 c 0,7.75823 -1.7694,7.76585 -17.87224,0.0769 z"
       style="fill:#141414" />
  </g>
</svg>
